<?xml version="1.0" encoding="UTF-8" standalone="no"?><!DOCTYPE svg PUBLIC "-//W3C//DTD SVG 1.1//EN" "http://www.w3.org/Graphics/SVG/1.1/DTD/svg11.dtd"><svg width="100%" height="100%" viewBox="0 0 2255 2255" version="1.1" xmlns="http://www.w3.org/2000/svg" xmlns:xlink="http://www.w3.org/1999/xlink" xml:space="preserve" xmlns:serif="http://www.serif.com/" style="fill-rule:evenodd;clip-rule:evenodd;stroke-linejoin:round;stroke-miterlimit:2;"><rect id="comp4nivel1" x="2.198" y="1.699" width="2250" height="2250" style="fill:none;"/><g><path d="M1127.2,152.232c537.823,-0 974.467,436.644 974.467,974.467c-0,537.822 -436.644,974.466 -974.467,974.466c-537.823,0 -974.467,-436.644 -974.467,-974.466c-0,-537.823 436.644,-974.467 974.467,-974.467Zm-0,292.34c376.476,-0 682.126,305.65 682.126,682.127c0,376.476 -305.65,682.126 -682.126,682.126c-376.476,0 -682.127,-305.65 -682.127,-682.126c-0,-376.477 305.651,-682.127 682.127,-682.127Z" style="fill:#00bf0b;"/><path d="M1127.2,68.898c-583.816,0 -1057.8,473.985 -1057.8,1057.8c0,583.815 473.985,1057.8 1057.8,1057.8c583.816,-0 1057.8,-473.985 1057.8,-1057.8c-0,-583.816 -473.984,-1057.8 -1057.8,-1057.8Zm-0,83.334c537.823,-0 974.467,436.644 974.467,974.467c-0,537.822 -436.644,974.466 -974.467,974.466c-537.823,0 -974.467,-436.644 -974.467,-974.466c-0,-537.823 436.644,-974.467 974.467,-974.467Zm-0,292.34c376.476,-0 682.126,305.65 682.126,682.127c0,376.476 -305.65,682.126 -682.126,682.126c-376.476,0 -682.127,-305.65 -682.127,-682.126c-0,-376.477 305.651,-682.127 682.127,-682.127Zm-0,83.333c330.483,0 598.793,268.31 598.793,598.794c0,330.483 -268.31,598.793 -598.793,598.793c-330.483,-0 -598.794,-268.31 -598.794,-598.793c0,-330.484 268.311,-598.794 598.794,-598.794Z" style="fill:#fff;"/><g><g><path d="M1119.81,847.714c-0,0 87.517,107.985 86.292,156.718c-1.085,43.2 -33.739,78.398 -75.807,84.964c-5.388,0.841 -16.186,202.97 -21.837,202.829c-5.294,-0.133 -5.217,-202.47 -10.24,-203.455c-42.198,-8.28 -73.555,-45.318 -72.461,-88.868c1.225,-48.734 94.053,-152.188 94.053,-152.188Z" style="fill:#00bf0b;"/></g><g transform="matrix(79.5758,0,0,79.5758,-62774.3,-43400.7)"><text x="798.519px" y="565.046px" style="font-family:'OpenSans', 'Open Sans', sans-serif;font-size:2.513px;fill:#006615;">NÍVEL</text><text x="805.965px" y="565.046px" style="font-family:'OpenSans-Bold', 'Open Sans', sans-serif;font-weight:700;font-size:2.513px;fill:#006615;">1</text></g></g></g></svg>