<?xml version="1.0" encoding="UTF-8" standalone="no"?><!DOCTYPE svg PUBLIC "-//W3C//DTD SVG 1.1//EN" "http://www.w3.org/Graphics/SVG/1.1/DTD/svg11.dtd"><svg width="100%" height="100%" viewBox="0 0 2255 2255" version="1.1" xmlns="http://www.w3.org/2000/svg" xmlns:xlink="http://www.w3.org/1999/xlink" xml:space="preserve" xmlns:serif="http://www.serif.com/" style="fill-rule:evenodd;clip-rule:evenodd;stroke-linejoin:round;stroke-miterlimit:2;"><rect id="comp1nivel3" x="2.198" y="1.699" width="2250" height="2250" style="fill:none;"/><g><g><path d="M639.964,1970.61c148.138,85.527 316.179,130.553 487.234,130.553c538.183,0 974.467,-436.283 974.467,-974.466l-292.341,-0c0,376.728 -305.398,682.126 -682.126,682.126c-119.739,0 -237.367,-31.518 -341.064,-91.387l-146.17,253.174Z" style="fill:#192eff;"/><path d="M567.796,1928.94c-23.012,39.858 -9.356,90.824 30.502,113.835c160.806,92.842 343.217,141.719 528.9,141.719c584.207,-0 1057.8,-473.594 1057.8,-1057.8c-0,-46.024 -37.31,-83.334 -83.333,-83.334l-292.341,0c-46.023,0 -83.333,37.31 -83.333,83.334c0,330.704 -268.089,598.793 -598.793,598.793c-105.11,-0 -208.369,-27.668 -299.397,-80.223c-39.858,-23.012 -90.824,-9.356 -113.835,30.502c-0,0 -146.17,253.174 -146.17,253.174Zm72.168,41.667c148.138,85.527 316.179,130.553 487.234,130.553c538.183,0 974.467,-436.283 974.467,-974.466l-292.341,-0c0,376.728 -305.398,682.126 -682.126,682.126c-119.739,0 -237.367,-31.518 -341.064,-91.387l-146.17,253.174Z" style="fill:#fff;"/><path d="M639.964,282.785c-301.501,174.072 -487.233,495.77 -487.233,843.914c-0,348.143 185.732,669.841 487.233,843.913l146.17,-253.174c-211.05,-121.85 -341.063,-347.039 -341.063,-590.739c-0,-243.701 130.013,-468.889 341.063,-590.74l-146.17,-253.174Z" style="fill:#0073ff;"/><path d="M712.133,241.119c-23.012,-39.858 -73.978,-53.514 -113.835,-30.502c-327.285,188.958 -528.901,538.166 -528.901,916.082c0,377.915 201.616,727.124 528.901,916.081c39.857,23.012 90.823,9.356 113.835,-30.502l146.17,-253.174c23.012,-39.857 9.356,-90.823 -30.502,-113.835c-185.267,-106.964 -299.397,-304.642 -299.397,-518.57c0,-213.929 114.13,-411.607 299.397,-518.571c39.858,-23.012 53.514,-73.978 30.502,-113.835l-146.17,-253.174Zm-72.169,41.666c-301.501,174.072 -487.233,495.77 -487.233,843.914c-0,348.143 185.732,669.841 487.233,843.913l146.17,-253.174c-211.05,-121.85 -341.063,-347.039 -341.063,-590.739c-0,-243.701 130.013,-468.889 341.063,-590.74l-146.17,-253.174Z" style="fill:#fff;"/><path d="M2101.66,1126.7c-0,-538.184 -436.284,-974.467 -974.467,-974.467c-171.055,-0 -339.096,45.026 -487.234,130.553l146.17,253.174c103.697,-59.869 221.325,-91.387 341.064,-91.387c376.728,-0 682.126,305.398 682.126,682.127l292.341,-0Z" style="fill:#2100b6;"/><path d="M2101.66,1210.03c46.023,-0 83.333,-37.31 83.333,-83.333c-0,-584.207 -473.593,-1057.8 -1057.8,-1057.8c-185.683,0 -368.095,48.877 -528.9,141.719c-39.858,23.012 -53.514,73.977 -30.503,113.835l146.17,253.174c23.012,39.858 73.978,53.514 113.836,30.502c91.028,-52.555 194.286,-80.223 299.397,-80.223c330.704,0 598.793,268.089 598.793,598.794c0,46.023 37.31,83.333 83.333,83.333l292.341,-0Zm-0,-83.333c-0,-538.184 -436.284,-974.467 -974.467,-974.467c-171.055,-0 -339.096,45.026 -487.234,130.553l146.17,253.174c103.697,-59.869 221.325,-91.387 341.064,-91.387c376.728,-0 682.126,305.398 682.126,682.127l292.341,-0Z" style="fill:#fff;"/></g><g><g><path d="M1163.47,604.819c0,-0 93.235,119.848 90.836,173.049c-2.127,47.16 -38.559,84.892 -84.649,91.146c-5.904,0.802 -29.897,448.024 -36.067,447.746c-5.779,-0.261 6.51,-447.943 1.046,-449.128c-45.91,-9.962 -79.351,-51.1 -77.207,-98.642c2.399,-53.2 106.041,-164.171 106.041,-164.171Z" style="fill:#192eff;"/><path d="M884.562,956.196c-0,-0 185.738,49.555 224.022,105.052c33.937,49.196 26.057,115.129 -15.647,156.701c-5.342,5.326 47.22,94.073 40.785,98.513c-6.029,4.158 -70.749,-76.098 -77.168,-73.113c-53.93,25.077 -119.134,9.168 -153.346,-40.426c-38.284,-55.497 -18.646,-246.727 -18.646,-246.727Z" style="fill:#0073ff;"/><path d="M1335.01,852.853c-0,-0 53.014,142.287 34.776,192.321c-16.167,44.353 -62.236,69.427 -108.081,61.576c-5.873,-1.005 -121.975,212.215 -127.777,210.1c-5.435,-1.981 99.639,-219.149 94.781,-221.918c-40.811,-23.268 -60.38,-72.539 -44.082,-117.251c18.238,-50.034 150.383,-124.828 150.383,-124.828Z" style="fill:#2100b6;"/></g><g transform="matrix(79.5758,0,0,79.5758,-62774.9,-43400.7)"><text x="798.519px" y="565.046px" style="font-family:'OpenSans', 'Open Sans', sans-serif;font-size:2.513px;fill:#2100b6;">NÍVEL</text><text x="805.965px" y="565.046px" style="font-family:'OpenSans-Bold', 'Open Sans', sans-serif;font-weight:700;font-size:2.513px;fill:#2100b6;">3</text></g></g></g></svg>