<?xml version="1.0" encoding="UTF-8" standalone="no"?><!DOCTYPE svg PUBLIC "-//W3C//DTD SVG 1.1//EN" "http://www.w3.org/Graphics/SVG/1.1/DTD/svg11.dtd"><svg width="100%" height="100%" viewBox="0 0 2255 2255" version="1.1" xmlns="http://www.w3.org/2000/svg" xmlns:xlink="http://www.w3.org/1999/xlink" xml:space="preserve" xmlns:serif="http://www.serif.com/" style="fill-rule:evenodd;clip-rule:evenodd;stroke-linejoin:round;stroke-miterlimit:2;"><rect id="comp1nivel5" x="2.198" y="1.699" width="2250" height="2250" style="fill:none;"/><g><g><path d="M1428.33,2053.47c401.502,-130.457 673.34,-504.609 673.34,-926.774l-292.341,0c0.001,295.516 -190.286,557.422 -471.337,648.742l90.338,278.032Z" style="fill:#0ae4ec;"/><path d="M1349.07,2079.22c14.222,43.771 61.235,67.725 105.006,53.503c435.838,-141.612 730.922,-547.761 730.922,-1006.03c-0,-46.023 -37.31,-83.333 -83.333,-83.333l-292.341,0c-46.023,0 -83.333,37.31 -83.333,83.333c0,259.413 -167.039,489.324 -413.756,569.487c-43.771,14.222 -67.725,61.235 -53.503,105.006l90.338,278.032Zm79.255,-25.751c401.502,-130.457 673.34,-504.609 673.34,-926.774l-292.341,0c0.001,295.516 -190.286,557.422 -471.337,648.742l90.338,278.032Z" style="fill:#fff;"/><path d="M338.838,1699.48c183.348,252.358 476.428,401.689 788.36,401.689c102.256,0 203.875,-16.095 301.127,-47.693l-90.338,-278.032c-68.077,22.119 -139.21,33.385 -210.789,33.385c-218.352,0 -423.508,-104.532 -551.852,-281.182l-236.508,171.833Z" style="fill:#0af;"/><path d="M289.855,1632.06c-37.234,27.052 -45.488,79.166 -18.436,116.4c199.029,273.939 517.172,436.041 855.779,436.041c111.001,-0 221.31,-17.472 326.878,-51.773c43.771,-14.222 67.725,-61.235 53.503,-105.006l-90.338,-278.032c-14.222,-43.771 -61.235,-67.725 -105.006,-53.503c-59.759,19.417 -122.203,29.307 -185.037,29.307c-191.677,-0 -371.77,-91.762 -484.434,-246.831c-27.052,-37.234 -79.167,-45.488 -116.401,-18.436l-236.508,171.833Zm48.983,67.418c183.348,252.358 476.428,401.689 788.36,401.689c102.256,0 203.875,-16.095 301.127,-47.693l-90.338,-278.032c-68.077,22.119 -139.21,33.385 -210.789,33.385c-218.352,0 -423.508,-104.532 -551.852,-281.182l-236.508,171.833Z" style="fill:#fff;"/><path d="M338.837,553.921c-120.958,166.486 -186.106,366.99 -186.106,572.778c-0,205.787 65.148,406.292 186.107,572.777l236.508,-171.833c-84.672,-116.54 -130.275,-256.893 -130.275,-400.944c-0,-144.051 45.603,-284.405 130.274,-400.945l-236.508,-171.833Z" style="fill:#192eff;"/><path d="M387.819,486.503c-37.233,-27.052 -89.348,-18.798 -116.4,18.436c-131.302,180.723 -202.022,398.374 -202.022,621.76c0,223.385 70.72,441.036 202.022,621.759c27.053,37.234 79.167,45.488 116.401,18.436l236.508,-171.833c37.234,-27.052 45.488,-79.166 18.436,-116.4c-74.327,-102.303 -114.36,-225.51 -114.36,-351.962c0,-126.453 40.033,-249.66 114.36,-351.962c27.052,-37.234 18.798,-89.349 -18.436,-116.401l-236.509,-171.833Zm-48.982,67.418c-120.958,166.486 -186.106,366.99 -186.106,572.778c-0,205.787 65.148,406.292 186.107,572.777l236.508,-171.833c-84.672,-116.54 -130.275,-256.893 -130.275,-400.944c-0,-144.051 45.603,-284.405 130.274,-400.945l-236.508,-171.833Z" style="fill:#fff;"/><path d="M1428.32,199.925c-97.251,-31.598 -198.87,-47.693 -301.126,-47.693c-311.932,-0 -605.012,149.331 -788.361,401.689l236.508,171.833c128.345,-176.65 333.5,-281.182 551.853,-281.182c71.579,-0 142.712,11.266 210.788,33.385l90.338,-278.032Z" style="fill:#0073ff;"/><path d="M1507.58,225.677c14.222,-43.771 -9.732,-90.784 -53.503,-105.006c-105.568,-34.301 -215.877,-51.773 -326.878,-51.773c-338.607,0 -656.75,162.102 -855.779,436.041c-27.052,37.234 -18.798,89.348 18.436,116.4l236.508,171.834c37.234,27.052 89.349,18.798 116.401,-18.436c112.664,-155.07 292.757,-246.832 484.434,-246.832c62.834,0 125.278,9.89 185.037,29.307c43.771,14.222 90.784,-9.732 105.006,-53.503c0,-0 90.338,-278.032 90.338,-278.032Zm-79.255,-25.752c-97.251,-31.598 -198.87,-47.693 -301.126,-47.693c-311.932,-0 -605.012,149.331 -788.361,401.689l236.508,171.833c128.345,-176.65 333.5,-281.182 551.853,-281.182c71.579,-0 142.712,11.266 210.788,33.385l90.338,-278.032Z" style="fill:#fff;"/><path d="M2101.66,1126.7c-0,-422.165 -271.838,-796.318 -673.341,-926.774l-90.338,278.032c281.052,91.32 471.338,353.226 471.338,648.742l292.341,-0Z" style="fill:#2100b6;"/><path d="M2101.66,1210.03c46.023,-0 83.333,-37.31 83.333,-83.333c-0,-458.267 -295.084,-864.416 -730.922,-1006.03c-43.771,-14.222 -90.784,9.732 -105.006,53.503l-90.338,278.032c-14.222,43.771 9.732,90.784 53.503,105.006c246.717,80.163 413.756,310.073 413.756,569.487c0,46.023 37.31,83.333 83.333,83.333l292.341,-0Zm-0,-83.333c-0,-422.165 -271.838,-796.318 -673.341,-926.774l-90.338,278.032c281.052,91.32 471.338,353.226 471.338,648.742l292.341,-0Z" style="fill:#fff;"/></g><g><g><path d="M1164.1,604.819c0,-0 93.234,119.848 90.835,173.049c-2.126,47.16 -38.558,84.892 -84.648,91.146c-5.905,0.802 -29.897,448.024 -36.067,447.746c-5.779,-0.261 6.51,-447.943 1.045,-449.128c-45.909,-9.962 -79.35,-51.1 -77.206,-98.642c2.399,-53.2 106.041,-164.171 106.041,-164.171Z" style="fill:#192eff;"/><path d="M941.614,745.783c0,0 101.597,60.981 112.922,99.524c10.039,34.167 -8.719,70.605 -42.722,87.14c-4.356,2.119 127.574,382.973 122.747,384.392c-4.523,1.328 -145.594,-376.787 -150.103,-376.2c-37.88,4.931 -73.862,-15.623 -83.982,-50.066c-11.325,-38.544 41.138,-144.79 41.138,-144.79Z" style="fill:#0af;"/><path d="M885.197,956.196c-0,-0 185.738,49.555 224.022,105.052c33.936,49.196 26.057,115.129 -15.647,156.701c-5.343,5.326 47.22,94.073 40.784,98.513c-6.028,4.158 -70.748,-76.098 -77.167,-73.113c-53.93,25.077 -119.135,9.168 -153.346,-40.426c-38.284,-55.497 -18.646,-246.727 -18.646,-246.727Z" style="fill:#0073ff;"/><path d="M1335.64,852.853c0,-0 53.015,142.287 34.777,192.321c-16.168,44.353 -62.236,69.427 -108.081,61.576c-5.873,-1.005 -121.975,212.215 -127.777,210.1c-5.435,-1.981 99.639,-219.149 94.781,-221.918c-40.811,-23.268 -60.38,-72.539 -44.082,-117.251c18.238,-50.034 150.382,-124.828 150.382,-124.828Z" style="fill:#2100b6;"/><path d="M1370.62,1113.51c0,0 -7.783,92.103 -30.823,114.908c-20.423,20.215 -52.298,22.049 -75.495,5.817c-2.972,-2.08 -122.282,85.133 -124.927,82.461c-2.477,-2.503 111.788,-94.753 109.833,-97.54c-16.421,-23.412 -14.393,-55.62 6.196,-75.999c23.039,-22.805 115.216,-29.647 115.216,-29.647Z" style="fill:#0ae4ec;"/></g><g transform="matrix(79.5758,0,0,79.5758,-62774.3,-43400.7)"><text x="798.519px" y="565.046px" style="font-family:'OpenSans', 'Open Sans', sans-serif;font-size:2.513px;fill:#2100b6;">NÍVEL</text><text x="805.965px" y="565.046px" style="font-family:'OpenSans-Bold', 'Open Sans', sans-serif;font-weight:700;font-size:2.513px;fill:#2100b6;">5</text></g></g></g></svg>