<?xml version="1.0" encoding="UTF-8" standalone="no"?><!DOCTYPE svg PUBLIC "-//W3C//DTD SVG 1.1//EN" "http://www.w3.org/Graphics/SVG/1.1/DTD/svg11.dtd"><svg width="100%" height="100%" viewBox="0 0 2255 2255" version="1.1" xmlns="http://www.w3.org/2000/svg" xmlns:xlink="http://www.w3.org/1999/xlink" xml:space="preserve" xmlns:serif="http://www.serif.com/" style="fill-rule:evenodd;clip-rule:evenodd;stroke-linejoin:round;stroke-miterlimit:2;"><rect id="comp2nivel4" x="2.198" y="1.699" width="2250" height="2250" style="fill:none;"/><g><g><path d="M1127.2,2101.16c538.183,0 974.467,-436.283 974.467,-974.466l-292.341,-0c0,376.728 -305.398,682.126 -682.126,682.126l-0,292.34Z" style="fill:#c700ff;"/><path d="M1043.86,2101.16c0,46.024 37.31,83.334 83.334,83.334c584.207,-0 1057.8,-473.594 1057.8,-1057.8c-0,-46.024 -37.31,-83.334 -83.333,-83.334l-292.341,0c-46.023,0 -83.333,37.31 -83.333,83.334c0,330.704 -268.089,598.793 -598.793,598.793c-46.024,-0 -83.334,37.31 -83.334,83.333l0,292.34Zm83.334,0c538.183,0 974.467,-436.283 974.467,-974.466l-292.341,-0c0,376.728 -305.398,682.126 -682.126,682.126l-0,292.34Z" style="fill:#fff;"/><path d="M152.731,1126.7c-0,538.183 436.284,974.466 974.467,974.466l-0,-292.34c-376.729,0 -682.127,-305.398 -682.127,-682.126l-292.34,-0Z" style="fill:#6d00ff;"/><path d="M152.731,1043.37c-46.024,0 -83.334,37.31 -83.334,83.334c0.001,584.207 473.594,1057.8 1057.8,1057.8c46.023,-0 83.333,-37.31 83.333,-83.334l0,-292.34c0,-46.023 -37.31,-83.333 -83.333,-83.333c-330.705,-0 -598.794,-268.089 -598.794,-598.793c0,-46.024 -37.309,-83.334 -83.333,-83.334c-0,0 -292.34,0 -292.34,0Zm-0,83.334c-0,538.183 436.284,974.466 974.467,974.466l-0,-292.34c-376.729,0 -682.127,-305.398 -682.127,-682.126l-292.34,-0Z" style="fill:#fff;"/><path d="M1127.2,152.232c-538.184,-0 -974.467,436.283 -974.467,974.467l292.34,-0c-0,-376.729 305.398,-682.127 682.127,-682.127l-0,-292.34Z" style="fill:#9a0aff;"/><path d="M1210.53,152.232c0,-46.024 -37.31,-83.334 -83.333,-83.334c-584.207,0 -1057.8,473.594 -1057.8,1057.8c0,46.023 37.31,83.333 83.334,83.333l292.34,-0c46.024,-0 83.333,-37.31 83.333,-83.333c0,-330.705 268.089,-598.794 598.794,-598.794c46.023,0 83.333,-37.31 83.333,-83.333l0,-292.34Zm-83.333,-0c-538.184,-0 -974.467,436.283 -974.467,974.467l292.34,-0c-0,-376.729 305.398,-682.127 682.127,-682.127l-0,-292.34Z" style="fill:#fff;"/><path d="M2101.66,1126.7c-0,-538.184 -436.284,-974.467 -974.467,-974.467l-0,292.34c376.728,-0 682.126,305.398 682.126,682.127l292.341,-0Z" style="fill:#680096;"/><path d="M2101.66,1210.03c46.023,-0 83.333,-37.31 83.333,-83.333c-0,-584.207 -473.593,-1057.8 -1057.8,-1057.8c-46.024,0 -83.334,37.31 -83.334,83.334l0,292.34c0,46.023 37.31,83.333 83.334,83.333c330.704,0 598.793,268.089 598.793,598.794c0,46.023 37.31,83.333 83.333,83.333l292.341,-0Zm-0,-83.333c-0,-538.184 -436.284,-974.467 -974.467,-974.467l-0,292.34c376.728,-0 682.126,305.398 682.126,682.127l292.341,-0Z" style="fill:#fff;"/></g><g><g><path d="M1161.17,605.795c-0,0 93.234,119.849 90.835,173.05c-2.127,47.159 -38.559,84.891 -84.649,91.146c-5.904,0.801 -29.897,448.024 -36.066,447.746c-5.779,-0.261 6.509,-447.943 1.045,-449.129c-45.91,-9.962 -79.351,-51.099 -77.207,-98.641c2.399,-53.201 106.042,-164.172 106.042,-164.172Z" style="fill:#6d00ff;"/><path d="M938.685,746.76c-0,-0 101.597,60.98 112.921,99.524c10.039,34.166 -8.719,70.604 -42.722,87.14c-4.355,2.118 127.575,382.973 122.747,384.391c-4.522,1.329 -145.594,-376.786 -150.103,-376.199c-37.88,4.931 -73.862,-15.623 -83.982,-50.067c-11.325,-38.543 41.139,-144.789 41.139,-144.789Z" style="fill:#c700ff;"/><path d="M882.267,957.173c0,-0 185.738,49.554 224.022,105.052c33.937,49.195 26.058,115.129 -15.647,156.701c-5.342,5.325 47.22,94.073 40.785,98.512c-6.029,4.159 -70.748,-76.097 -77.168,-73.112c-53.929,25.077 -119.134,9.168 -153.346,-40.426c-38.284,-55.498 -18.646,-246.727 -18.646,-246.727Z" style="fill:#9a0aff;"/><path d="M1332.71,853.829c-0,0 53.014,142.288 34.776,192.322c-16.167,44.353 -62.236,69.427 -108.081,61.576c-5.873,-1.006 -121.975,212.215 -127.777,210.1c-5.435,-1.981 99.639,-219.149 94.781,-221.919c-40.811,-23.267 -60.38,-72.538 -44.082,-117.25c18.238,-50.035 150.383,-124.829 150.383,-124.829Z" style="fill:#680096;"/></g><g transform="matrix(79.5758,0,0,79.5758,-62777.2,-43399.7)"><text x="798.519px" y="565.046px" style="font-family:'OpenSans', 'Open Sans', sans-serif;font-size:2.513px;fill:#680096;">NÍVEL</text><text x="805.965px" y="565.046px" style="font-family:'OpenSans-Bold', 'Open Sans', sans-serif;font-weight:700;font-size:2.513px;fill:#680096;">4</text></g></g></g></svg>