<?xml version="1.0" encoding="UTF-8" standalone="no"?><!DOCTYPE svg PUBLIC "-//W3C//DTD SVG 1.1//EN" "http://www.w3.org/Graphics/SVG/1.1/DTD/svg11.dtd"><svg width="100%" height="100%" viewBox="0 0 2255 2255" version="1.1" xmlns="http://www.w3.org/2000/svg" xmlns:xlink="http://www.w3.org/1999/xlink" xml:space="preserve" xmlns:serif="http://www.serif.com/" style="fill-rule:evenodd;clip-rule:evenodd;stroke-linejoin:round;stroke-miterlimit:2;"><rect id="comp2nivel2" x="2.198" y="1.699" width="2250" height="2250" style="fill:none;"/><g><g><path d="M152.731,1126.7c-0,538.183 436.284,974.466 974.467,974.466c538.183,0 974.467,-436.283 974.467,-974.467l-292.341,0c0.001,376.729 -305.398,682.127 -682.126,682.127c-376.729,0 -682.127,-305.398 -682.127,-682.126l-292.34,-0Z" style="fill:#9a0aff;"/><path d="M152.731,1043.37c-46.024,0 -83.334,37.31 -83.334,83.334c0.001,584.207 473.594,1057.8 1057.8,1057.8c584.207,-0 1057.8,-473.594 1057.8,-1057.8c-0,-46.023 -37.31,-83.333 -83.333,-83.333l-292.341,0c-46.023,0 -83.333,37.31 -83.333,83.333c0,330.705 -268.089,598.794 -598.793,598.794c-330.705,-0 -598.794,-268.089 -598.794,-598.793c0,-46.024 -37.309,-83.334 -83.333,-83.334c-0,0 -292.34,0 -292.34,0Zm-0,83.334c-0,538.183 436.284,974.466 974.467,974.466c538.183,0 974.467,-436.283 974.467,-974.467l-292.341,0c0.001,376.729 -305.398,682.127 -682.126,682.127c-376.729,0 -682.127,-305.398 -682.127,-682.126l-292.34,-0Z" style="fill:#fff;"/><path d="M2101.66,1126.7c-0,-538.184 -436.284,-974.467 -974.467,-974.467c-538.184,-0 -974.467,436.283 -974.467,974.467l292.34,-0c-0,-376.729 305.398,-682.127 682.127,-682.127c376.728,-0 682.126,305.398 682.126,682.127l292.341,-0Z" style="fill:#680096;"/><path d="M2101.66,1210.03c46.023,-0 83.333,-37.31 83.333,-83.333c-0,-584.207 -473.593,-1057.8 -1057.8,-1057.8c-584.207,0 -1057.8,473.594 -1057.8,1057.8c0,46.023 37.31,83.333 83.334,83.333l292.34,-0c46.024,-0 83.333,-37.31 83.333,-83.333c0,-330.705 268.089,-598.794 598.794,-598.794c330.704,0 598.793,268.089 598.793,598.794c0,46.023 37.31,83.333 83.333,83.333l292.341,-0Zm-0,-83.333c-0,-538.184 -436.284,-974.467 -974.467,-974.467c-538.184,-0 -974.467,436.283 -974.467,974.467l292.34,-0c-0,-376.729 305.398,-682.127 682.127,-682.127c376.728,-0 682.126,305.398 682.126,682.127l292.341,-0Z" style="fill:#fff;"/></g><g><g><path d="M885.197,956.196c-0,-0 185.738,49.555 224.022,105.052c33.936,49.196 26.057,115.129 -15.647,156.701c-5.343,5.326 47.22,94.073 40.784,98.513c-6.028,4.158 -70.748,-76.098 -77.167,-73.113c-53.93,25.077 -119.135,9.168 -153.346,-40.426c-38.284,-55.497 -18.646,-246.727 -18.646,-246.727Z" style="fill:#9a0aff;"/><path d="M1335.64,852.853c0,-0 53.015,142.287 34.777,192.321c-16.168,44.353 -62.236,69.427 -108.081,61.576c-5.873,-1.005 -121.975,212.215 -127.777,210.1c-5.435,-1.981 99.639,-219.149 94.781,-221.918c-40.811,-23.268 -60.38,-72.539 -44.082,-117.251c18.238,-50.034 150.382,-124.828 150.382,-124.828Z" style="fill:#680096;"/></g><g transform="matrix(79.5758,0,0,79.5758,-62774.3,-43400.7)"><text x="798.519px" y="565.046px" style="font-family:'OpenSans', 'Open Sans', sans-serif;font-size:2.513px;fill:#680096;">NÍVEL</text><text x="805.965px" y="565.046px" style="font-family:'OpenSans-Bold', 'Open Sans', sans-serif;font-weight:700;font-size:2.513px;fill:#680096;">2</text></g></g></g></svg>